<svg width="24" height="24" viewBox="0 0 24 24" fill="none" xmlns="http://www.w3.org/2000/svg">
<path fill-rule="evenodd" clip-rule="evenodd" d="M14.8285 16.2426C15.219 16.6332 15.8522 16.6332 16.2427 16.2426C16.6332 15.8521 16.6332 15.219 16.2427 14.8284L13.4143 12L16.2427 9.17157C16.6332 8.78105 16.6332 8.14788 16.2427 7.75736C15.8522 7.36684 15.219 7.36683 14.8285 7.75736L12.0001 10.5858L9.17162 7.75736C8.7811 7.36683 8.14794 7.36684 7.75741 7.75736C7.36689 8.14788 7.36689 8.78105 7.75741 9.17157L10.5858 12L7.75741 14.8284C7.36689 15.219 7.36689 15.8521 7.75741 16.2426C8.14794 16.6332 8.7811 16.6332 9.17162 16.2426L12.0001 13.4142L14.8285 16.2426Z" fill="white"/>
</svg>
